<svg width="100" height="100" viewBox="0 0 100 100" fill="none" xmlns="http://www.w3.org/2000/svg">
<g clip-path="url(#clip0_25_2)">
<rect width="100" height="100" rx="25" fill="#5EE9B5"/>
<path d="M20 38V74H41.4286V58C41.4286 53.5817 45.2661 50 50 50C54.7339 50 58.5714 53.5817 58.5714 58V74H80V38L50 14L20 38Z" fill="white"/>
<path d="M11.5416 41.6667C9.74998 41.6667 8.33331 40.25 8.33331 38.4583V28.8333C8.33331 17.5417 17.5416 8.33334 28.8333 8.33334H38.4583C40.25 8.33334 41.6666 9.75 41.6666 11.5417C41.6666 13.3333 40.25 14.75 38.4583 14.75H28.8333C21.0416 14.75 14.75 21.0833 14.75 28.8333V38.4583C14.75 40.25 13.2916 41.6667 11.5416 41.6667Z" fill="white"/>
<path d="M88.4583 41.6667C86.7083 41.6667 85.25 40.25 85.25 38.4583V28.8333C85.25 21.0417 78.9166 14.75 71.1666 14.75H61.5416C59.75 14.75 58.3333 13.2917 58.3333 11.5417C58.3333 9.79167 59.75 8.33334 61.5416 8.33334H71.1666C82.4583 8.33334 91.6666 17.5417 91.6666 28.8333V38.4583C91.6666 40.25 90.25 41.6667 88.4583 41.6667Z" fill="white"/>
<path d="M71.1746 91.6654H65.3829C63.6329 91.6654 62.1746 90.2487 62.1746 88.4571C62.1746 86.7071 63.5912 85.2487 65.3829 85.2487H71.1746C78.9662 85.2487 85.2579 78.9154 85.2579 71.1654V65.4154C85.2579 63.6654 86.6746 62.2071 88.4662 62.2071C90.2162 62.2071 91.6746 63.6237 91.6746 65.4154V71.1654C91.6746 82.4571 82.4662 91.6654 71.1746 91.6654Z" fill="white"/>
<path d="M38.4583 91.6667H28.8333C17.5416 91.6667 8.33331 82.4583 8.33331 71.1667V61.5417C8.33331 59.75 9.74998 58.3333 11.5416 58.3333C13.3333 58.3333 14.75 59.75 14.75 61.5417V71.1667C14.75 78.9583 21.0833 85.25 28.8333 85.25H38.4583C40.2083 85.25 41.6666 86.6667 41.6666 88.4583C41.6666 90.25 40.25 91.6667 38.4583 91.6667Z" fill="white"/>
<path d="M76.9146 46.7937H71.2479H28.748H23.0814C21.2897 46.7937 19.873 48.2521 19.873 50.0021C19.873 51.7521 21.2897 53.2104 23.0814 53.2104H28.748H71.2479H76.9146C78.7062 53.2104 80.1229 51.7521 80.1229 50.0021C80.1229 48.2521 78.7062 46.7937 76.9146 46.7937Z" fill="white"/>
</g>
<defs>
<clipPath id="clip0_25_2">
<rect width="100" height="100" rx="25" fill="white"/>
</clipPath>
</defs>
</svg>
