<svg width="25" height="25" viewBox="0 0 25 25" fill="none" xmlns="http://www.w3.org/2000/svg">
<g clip-path="url(#clip0_272_2)">
<path fill-rule="evenodd" clip-rule="evenodd" d="M21.6568 16.1582C21.4513 21.0659 17.4092 24.982 12.451 24.982C7.36127 24.982 3.23529 20.7173 3.23529 15.7663C3.23529 15.1046 3.22343 13.782 4.21569 11.5506C4.80951 10.2153 5.18196 9.37633 5.39216 8.60947C5.50765 8.18799 5.73225 7.51839 6.37255 8.60947C6.7501 9.2528 6.76471 10.1781 6.76471 10.1781C6.76471 10.1781 8.16941 9.10015 9.11765 7.04084C10.5077 4.02192 9.39863 2.21731 9.01961 0.962407C8.88843 0.52829 8.80608 -0.251906 9.70588 0.0800544C10.6227 0.418388 13.0467 2.11515 14.3137 3.90358C16.1221 6.45603 16.7647 8.90358 16.7647 8.90358C16.7647 8.90358 17.3437 8.18496 17.549 7.433C17.7809 6.58388 17.7843 5.7429 18.5293 6.64878C19.2378 7.51025 20.2901 9.12917 20.8824 10.6683C21.9577 13.4633 21.6568 16.1582 21.6568 16.1582Z" fill="url(#paint0_linear_272_2)"/>
<path fill-rule="evenodd" clip-rule="evenodd" d="M12.451 24.9813C8.93147 24.9813 6.07843 22.1283 6.07843 18.6087C6.07843 16.4851 6.93422 15.1958 8.71529 13.4474C9.85569 12.3279 10.923 10.9529 11.3767 10.0166C11.466 9.83228 11.6692 8.87179 12.4528 9.99639C12.8639 10.5862 13.5083 11.6351 13.9216 12.5303C14.6339 14.0737 14.8039 15.5695 14.8039 15.5695C14.8039 15.5695 15.5021 15.1582 15.9804 14.0989C16.1346 13.7576 16.4464 12.4652 17.3179 13.7574C17.9575 14.7056 18.836 16.4105 18.8235 18.6087C18.8235 22.1283 15.9704 24.9813 12.451 24.9813Z" fill="#FC9502"/>
<path fill-rule="evenodd" clip-rule="evenodd" d="M12.549 18.0215C13.4559 18.0215 13.4559 19.7008 14.6078 21.9431C15.3749 23.4361 14.2275 24.9823 12.549 24.9823C10.8705 24.9823 10 23.6216 10 21.9431C10 20.2646 11.6422 18.0215 12.549 18.0215Z" fill="#FCE202"/>
</g>
<defs>
<linearGradient id="paint0_linear_272_2" x1="12.4648" y1="25.0004" x2="12.4648" y2="0.0188778" gradientUnits="userSpaceOnUse">
<stop stop-color="#FF4C0D"/>
<stop offset="1" stop-color="#FC9502"/>
</linearGradient>
<clipPath id="clip0_272_2">
<rect width="25" height="25" fill="white"/>
</clipPath>
</defs>
</svg>
